# xmcd CD database file
#
# Track frame offsets:
#	150
#	11344
#	30959
#	48941
#	71958
#	97775
#	119319
#	145914
#	166168
#	184888
#	204087
#	223269
#
# Disc length: 3412 seconds
#
# Revision: 0
# Processed by: cddbd v1.5.1PL0 Copyright (c) Steve Scherf et al.
# Submitted via: CDex 1.51
#
DISCID=9c0d520c
DTITLE=Janne Da Arc - D.N.A
DYEAR=1900
DGENRE=Rock
TTITLE0=Deja-Vu
TTITLE1=Vanity
TTITLE2=ファントム
TTITLE3=EDEN 〜君がいない〜
TTITLE4=child vision　〜絵本の中の綺麗な魔女〜
TTITLE5=stranger
TTITLE6=桜
TTITLE7=Lunatic Gate
TTITLE8=Junky Walker
TTITLE9=RED ZONE
TTITLE10=ring
TTITLE11=Heaven's Place
EXTD=
EXTT0=
EXTT1=
EXTT2=
EXTT3=
EXTT4=
EXTT5=
EXTT6=
EXTT7=
EXTT8=
EXTT9=
EXTT10=
EXTT11=
PLAYORDER=
